<svg xmlns="http://www.w3.org/2000/svg" width="16" height="16" viewBox="0 0 16 16" fill="none">
<path d="M12.8851 4.67965L6.71136 10.8534L3.7376 7.87965C3.70789 7.84994 3.67262 7.82637 3.6338 7.81029C3.59498 7.79421 3.55337 7.78594 3.51136 7.78594C3.46934 7.78594 3.42774 7.79421 3.38892 7.81029C3.3501 7.82637 3.31483 7.84994 3.28512 7.87965C3.25541 7.90936 3.23184 7.94463 3.21576 7.98345C3.19968 8.02227 3.19141 8.06387 3.19141 8.10589C3.19141 8.14791 3.19968 8.18951 3.21576 8.22833C3.23184 8.26715 3.25541 8.30242 3.28512 8.33213L6.48512 11.5321C6.51477 11.5619 6.55002 11.5856 6.58884 11.6018C6.62767 11.6179 6.66931 11.6262 6.71136 11.6262C6.75341 11.6262 6.79504 11.6179 6.83387 11.6018C6.8727 11.5856 6.90795 11.5619 6.9376 11.5321L13.3376 5.13213C13.3976 5.07213 13.4313 4.99075 13.4313 4.90589C13.4313 4.82103 13.3976 4.73965 13.3376 4.67965C13.2776 4.61965 13.1962 4.58594 13.1114 4.58594C13.0265 4.58594 12.9451 4.61965 12.8851 4.67965Z" fill="#00D400"/>
</svg>